<?xml version="1.0" standalone="no"?>
<!DOCTYPE svg PUBLIC "-//W3C//DTD SVG 20010904//EN"
 "http://www.w3.org/TR/2001/REC-SVG-20010904/DTD/svg10.dtd">
<svg version="1.0" xmlns="http://www.w3.org/2000/svg"
 width="1024.000000pt" height="1024.000000pt" viewBox="0 0 1024.000000 1024.000000"
 preserveAspectRatio="xMidYMid meet">
<metadata>
Created by potrace 1.11, written by Peter Selinger 2001-2013
</metadata>
<g transform="translate(0.000000,1024.000000) scale(0.100000,-0.100000)"
fill="#000000" stroke="none">
<path d="M8840 8867 c-14 -8 -99 -56 -190 -109 -413 -238 -625 -360 -750 -433
-74 -43 -252 -146 -395 -228 -483 -278 -820 -473 -1190 -687 -156 -90 -583
-337 -648 -374 -17 -10 -104 -60 -192 -111 -177 -102 -471 -271 -525 -303 -19
-11 -89 -51 -155 -89 -286 -166 -893 -516 -945 -546 -38 -21 -318 -183 -645
-372 -115 -67 -237 -137 -270 -155 -33 -18 -67 -39 -76 -46 -8 -8 -18 -14 -22
-14 -3 0 -57 -30 -119 -66 -62 -37 -129 -76 -148 -86 -70 -40 -436 -252 -465
-269 -16 -11 -37 -22 -45 -26 -8 -4 -62 -34 -120 -68 -58 -34 -217 -126 -355
-205 -137 -79 -260 -152 -272 -163 -37 -33 -27 -103 16 -127 11 -5 70 -23 132
-39 63 -17 141 -38 174 -47 33 -9 67 -18 75 -19 8 -2 303 -81 655 -176 588
-157 808 -216 954 -255 61 -16 70 -21 75 -51 4 -18 32 -123 116 -438 12 -44
23 -87 25 -95 2 -8 19 -71 38 -140 57 -208 138 -508 142 -527 2 -10 38 -144
80 -298 42 -154 78 -287 79 -295 9 -39 110 -412 127 -473 18 -62 24 -70 56
-83 32 -14 38 -13 76 6 62 32 647 369 679 391 15 11 29 19 32 19 2 0 71 39
153 86 81 48 168 98 192 112 92 51 146 83 161 92 8 5 31 18 50 29 19 11 124
71 234 135 109 64 202 116 205 116 6 0 464 -785 583 -999 60 -108 90 -128 153
-99 22 10 33 37 91 217 36 113 77 242 92 286 14 44 27 85 28 90 2 9 102 323
415 1305 66 206 122 382 124 390 2 8 22 71 44 140 35 110 133 419 391 1230 39
124 100 317 136 430 36 113 79 248 96 300 16 52 51 163 78 245 26 83 74 231
105 330 59 187 140 442 270 850 42 132 106 332 142 445 36 113 72 228 81 255
9 28 16 52 17 55 0 3 22 70 47 150 44 137 167 523 209 655 25 81 24 111 -6
140 -27 28 -58 31 -95 12z m-640 -573 c-18 -15 -37 -33 -44 -39 -6 -6 -63 -58
-126 -115 -63 -57 -155 -140 -204 -184 -48 -45 -92 -83 -96 -86 -4 -3 -50 -43
-101 -90 -128 -117 -203 -185 -399 -360 -52 -47 -102 -92 -110 -100 -8 -8 -53
-49 -100 -90 -46 -41 -94 -84 -106 -95 -11 -11 -52 -48 -90 -81 -38 -34 -81
-73 -95 -85 -67 -61 -215 -195 -319 -289 -63 -56 -153 -138 -200 -180 -88 -80
-147 -133 -190 -170 -13 -11 -49 -44 -80 -73 -31 -29 -74 -68 -96 -87 -53 -47
-142 -128 -239 -216 -44 -40 -91 -82 -105 -94 -14 -12 -63 -56 -110 -98 -46
-42 -109 -100 -140 -127 -30 -28 -70 -64 -89 -80 -41 -37 -74 -66 -126 -114
-33 -30 -340 -306 -490 -442 -42 -37 -112 -101 -255 -231 -47 -42 -95 -85
-108 -96 -12 -11 -59 -53 -105 -94 -45 -41 -179 -162 -297 -268 -118 -106
-246 -221 -284 -256 l-69 -62 -46 13 c-25 8 -206 57 -401 109 -195 52 -508
136 -695 186 -187 50 -374 100 -415 111 -41 11 -118 32 -170 46 -52 14 -101
26 -107 26 -7 0 -13 1 -13 3 0 1 96 57 213 125 211 121 550 318 742 429 55 32
262 152 460 266 519 298 577 332 1030 594 580 335 1133 654 1180 680 22 12 52
31 67 41 14 11 28 19 31 19 3 0 38 19 79 43 40 24 93 55 118 69 25 14 218 125
430 248 212 122 410 236 440 253 30 16 60 33 65 37 6 4 87 52 180 105 94 54
184 106 200 116 17 11 37 22 45 26 8 4 43 24 78 45 34 21 65 38 67 38 3 0 22
11 43 23 20 13 57 35 82 49 25 14 131 75 235 136 656 381 860 498 864 496 2
-2 -11 -15 -29 -30z m415 -71 c-13 -38 -39 -117 -58 -178 -19 -60 -62 -195
-95 -300 -34 -104 -89 -278 -122 -385 -34 -107 -70 -219 -81 -248 -10 -28 -19
-55 -19 -60 0 -4 -25 -86 -56 -182 -31 -96 -87 -274 -126 -395 -38 -121 -99
-312 -135 -425 -36 -113 -81 -254 -100 -315 -19 -60 -52 -164 -73 -230 -21
-66 -54 -169 -73 -230 -19 -60 -64 -202 -100 -315 -114 -357 -204 -639 -272
-855 -37 -115 -73 -228 -80 -250 -7 -22 -22 -69 -33 -105 -11 -36 -52 -164
-91 -285 -38 -121 -99 -312 -135 -425 -36 -113 -91 -286 -122 -385 -32 -99
-58 -182 -59 -185 0 -3 -24 -79 -54 -170 -29 -91 -79 -250 -112 -355 -101
-316 -104 -325 -109 -325 -3 1 -57 92 -120 203 -63 111 -118 204 -122 205 -5
2 -8 8 -8 13 0 6 -32 65 -71 132 -39 67 -95 163 -124 212 -29 50 -64 110 -77
135 -36 63 -500 867 -559 968 -27 45 -49 87 -49 93 0 9 274 408 934 1361 83
120 198 286 256 370 58 84 130 188 161 233 316 457 450 651 491 710 27 39 102
147 166 240 65 94 149 215 187 270 38 55 162 235 276 400 114 165 228 329 253
365 70 101 310 448 358 518 79 115 170 242 173 242 2 0 -7 -30 -20 -67z m-271
-60 c-37 -54 -84 -120 -103 -148 -19 -27 -48 -70 -65 -95 -17 -25 -34 -49 -39
-55 -8 -10 -37 -53 -287 -415 -80 -116 -188 -272 -240 -348 -53 -75 -130 -186
-171 -247 -74 -108 -248 -359 -526 -760 -76 -109 -167 -242 -203 -295 -36 -52
-167 -241 -291 -420 -124 -179 -256 -370 -294 -425 -158 -228 -573 -828 -584
-844 -117 -166 -332 -483 -364 -536 -34 -58 -237 -409 -309 -535 -11 -19 -156
-269 -321 -555 -165 -286 -327 -567 -360 -625 -33 -58 -63 -109 -67 -113 -6
-7 -27 59 -45 143 -2 8 -11 42 -20 75 -9 33 -18 67 -20 75 -5 20 -128 475
-164 610 -16 58 -63 233 -105 390 -42 157 -109 409 -150 560 -53 200 -70 277
-62 285 9 9 78 71 261 236 80 72 181 163 230 208 28 25 91 82 140 126 50 44
92 82 95 85 3 3 50 45 105 94 55 50 102 92 105 95 3 4 45 42 95 86 49 44 95
85 101 90 6 6 53 49 105 96 52 47 189 171 304 274 116 104 228 205 249 225 22
19 67 60 101 90 33 30 100 91 149 135 49 44 94 85 100 90 6 6 52 46 101 90 50
44 92 83 95 86 3 3 57 52 120 109 63 56 133 119 155 139 22 20 107 97 190 171
82 74 155 140 161 145 6 6 51 46 99 90 48 44 97 88 109 98 29 25 163 146 196
177 15 14 60 54 100 90 41 36 83 74 94 85 12 11 59 54 106 95 46 41 91 82 100
90 9 8 51 46 93 84 43 38 88 78 100 90 13 12 61 55 107 96 46 41 88 80 94 85
6 6 58 53 116 105 58 52 107 97 110 100 3 3 45 41 94 85 50 44 97 87 106 95
10 8 52 47 95 85 43 39 99 89 124 112 25 23 47 43 49 43 2 0 -27 -44 -64 -97z
m-2978 -4890 c43 -76 84 -147 90 -158 6 -11 77 -134 158 -274 80 -139 146
-254 146 -256 0 -2 -18 -12 -39 -23 -56 -30 -84 -45 -101 -58 -8 -6 -40 -25
-70 -41 -61 -33 -210 -119 -340 -196 -47 -27 -103 -60 -125 -72 -22 -12 -184
-105 -360 -207 -449 -259 -421 -244 -403 -216 41 65 118 197 118 203 0 4 8 19
19 33 14 22 141 241 351 607 10 17 35 60 56 97 22 37 122 211 224 386 101 176
188 319 191 316 4 -2 42 -66 85 -141z"/>
</g>
</svg>
